<mxfile host="65bd71144e">
    <diagram id="_5JBlxxsi-u8-bHlmMOF" name="Page-1">
        <mxGraphModel dx="566" dy="480" grid="1" gridSize="10" guides="1" tooltips="1" connect="1" arrows="1" fold="1" page="1" pageScale="1" pageWidth="850" pageHeight="1100" math="0" shadow="0">
            <root>
                <mxCell id="0"/>
                <mxCell id="1" parent="0"/>
                <mxCell id="3" style="edgeStyle=none;html=1;exitX=0.88;exitY=-0.017;exitDx=0;exitDy=0;exitPerimeter=0;entryX=1;entryY=0.25;entryDx=0;entryDy=0;dashed=1;endArrow=open;endFill=0;" edge="1" parent="1" source="2" target="2">
                    <mxGeometry relative="1" as="geometry">
                        <mxPoint x="530" y="250" as="targetPoint"/>
                        <mxPoint x="410" y="140" as="sourcePoint"/>
                        <Array as="points">
                            <mxPoint x="446" y="110"/>
                            <mxPoint x="530" y="110"/>
                            <mxPoint x="530" y="180"/>
                        </Array>
                    </mxGeometry>
                </mxCell>
                <mxCell id="7" style="edgeStyle=none;html=1;endArrow=open;endFill=0;entryX=0.4;entryY=0;entryDx=0;entryDy=0;entryPerimeter=0;dashed=1;" edge="1" parent="1" target="6">
                    <mxGeometry relative="1" as="geometry">
                        <mxPoint x="660" y="350" as="targetPoint"/>
                        <mxPoint x="460" y="230" as="sourcePoint"/>
                        <Array as="points">
                            <mxPoint x="460" y="350"/>
                            <mxPoint x="560" y="350"/>
                        </Array>
                    </mxGeometry>
                </mxCell>
                <mxCell id="2" value="&lt;&lt;interface&gt;&gt;&#10;InterpreterExpression" style="swimlane;startSize=40;" vertex="1" parent="1">
                    <mxGeometry x="270" y="170" width="200" height="60" as="geometry"/>
                </mxCell>
                <mxCell id="5" style="edgeStyle=none;html=1;endArrow=block;endFill=0;entryX=1;entryY=0.75;entryDx=0;entryDy=0;" edge="1" parent="1" source="4" target="2">
                    <mxGeometry relative="1" as="geometry">
                        <mxPoint x="690" y="120" as="targetPoint"/>
                        <Array as="points">
                            <mxPoint x="690" y="215"/>
                        </Array>
                    </mxGeometry>
                </mxCell>
                <mxCell id="4" value="InterpreterArithmeticExpression" style="swimlane;startSize=23;" vertex="1" parent="1">
                    <mxGeometry x="590" y="270" width="200" height="60" as="geometry"/>
                </mxCell>
                <mxCell id="6" value="Number" style="swimlane;" vertex="1" parent="1">
                    <mxGeometry x="510" y="440" width="120" height="60" as="geometry"/>
                </mxCell>
                <mxCell id="11" style="edgeStyle=none;html=1;entryX=0.5;entryY=1;entryDx=0;entryDy=0;endArrow=block;endFill=0;exitX=0.909;exitY=0;exitDx=0;exitDy=0;exitPerimeter=0;" edge="1" parent="1" source="8" target="2">
                    <mxGeometry relative="1" as="geometry">
                        <mxPoint x="370" y="400" as="sourcePoint"/>
                    </mxGeometry>
                </mxCell>
                <mxCell id="8" value="Multiplication" style="swimlane;" vertex="1" parent="1">
                    <mxGeometry x="270" y="410" width="110" height="60" as="geometry"/>
                </mxCell>
                <mxCell id="10" style="edgeStyle=none;html=1;endArrow=block;endFill=0;exitX=1;exitY=0.5;exitDx=0;exitDy=0;" edge="1" parent="1" source="9">
                    <mxGeometry relative="1" as="geometry">
                        <mxPoint x="440" y="230" as="targetPoint"/>
                        <Array as="points">
                            <mxPoint x="440" y="590"/>
                        </Array>
                    </mxGeometry>
                </mxCell>
                <mxCell id="9" value="Subtraction" style="swimlane;startSize=23;" vertex="1" parent="1">
                    <mxGeometry x="315" y="560" width="110" height="60" as="geometry"/>
                </mxCell>
                <mxCell id="13" style="edgeStyle=none;html=1;endArrow=block;endFill=0;entryX=0.25;entryY=1;entryDx=0;entryDy=0;" edge="1" parent="1" source="12" target="2">
                    <mxGeometry relative="1" as="geometry">
                        <mxPoint x="500" y="320" as="targetPoint"/>
                        <Array as="points">
                            <mxPoint x="135" y="320"/>
                            <mxPoint x="320" y="320"/>
                        </Array>
                    </mxGeometry>
                </mxCell>
                <mxCell id="12" value="Divison" style="swimlane;startSize=23;" vertex="1" parent="1">
                    <mxGeometry x="80" y="390" width="110" height="60" as="geometry"/>
                </mxCell>
                <mxCell id="15" style="edgeStyle=none;html=1;entryX=0;entryY=0.5;entryDx=0;entryDy=0;endArrow=block;endFill=0;" edge="1" parent="1" source="14" target="2">
                    <mxGeometry relative="1" as="geometry"/>
                </mxCell>
                <mxCell id="14" value="Addition" style="swimlane;startSize=23;" vertex="1" parent="1">
                    <mxGeometry x="20" y="170" width="110" height="60" as="geometry"/>
                </mxCell>
                <mxCell id="20" style="edgeStyle=none;html=1;dashed=1;endArrow=open;endFill=0;entryX=0.5;entryY=0;entryDx=0;entryDy=0;" edge="1" parent="1" source="16" target="2">
                    <mxGeometry relative="1" as="geometry">
                        <mxPoint x="580" y="140" as="targetPoint"/>
                        <Array as="points">
                            <mxPoint x="155" y="140"/>
                            <mxPoint x="370" y="140"/>
                        </Array>
                    </mxGeometry>
                </mxCell>
                <mxCell id="16" value="CalculoDano" style="swimlane;startSize=23;" vertex="1" parent="1">
                    <mxGeometry x="100" y="20" width="110" height="60" as="geometry"/>
                </mxCell>
                <mxCell id="19" style="edgeStyle=none;html=1;entryX=1;entryY=0.5;entryDx=0;entryDy=0;endArrow=open;endFill=0;dashed=1;" edge="1" parent="1" source="18" target="16">
                    <mxGeometry relative="1" as="geometry"/>
                </mxCell>
                <mxCell id="18" value="Player" style="swimlane;startSize=23;" vertex="1" parent="1">
                    <mxGeometry x="410" y="20" width="110" height="60" as="geometry"/>
                </mxCell>
            </root>
        </mxGraphModel>
    </diagram>
</mxfile>